<svg width="586" height="262" viewBox="0 0 586 262" fill="none" xmlns="http://www.w3.org/2000/svg">
<path d="M95.8915 205.935H0.376953V168.235L90.802 27.2666H133.965V171.726H166.736V205.935H133.965V251.548H95.8915V205.935ZM95.8915 81.1213H95.2504L39.0917 171.726H95.8915V81.1213Z" fill="#3889C6"/>
<path d="M514.858 205.935H419.363V168.235L509.788 27.2666H552.952V171.726H585.625V205.935H552.952V251.548H514.858V205.935ZM521.502 81.1213H520.861L464.702 171.726H521.502V81.1213Z" fill="#3889C6"/>
<path d="M286.163 38.4561C266.207 38.4522 246.698 44.3553 230.102 55.4189C213.506 66.4825 200.569 82.21 192.925 100.613C185.281 119.016 183.274 139.269 187.158 158.811C191.042 178.352 200.642 196.306 214.745 210.401C228.847 224.497 246.82 234.102 266.389 238.001C285.959 241.901 306.247 239.921 324.69 232.311C343.133 224.701 358.901 211.803 370.002 195.248C381.104 178.693 387.039 159.223 387.058 139.3C387.073 126.063 384.475 112.952 379.411 100.718C374.348 88.4833 366.918 77.3654 357.548 67.9997C348.177 58.6339 337.049 51.2039 324.801 46.1346C312.552 41.0653 299.422 38.456 286.163 38.4561Z" fill="white" stroke="#222222" stroke-width="1.04545" stroke-linecap="round" stroke-linejoin="round"/>
<path d="M339.059 113.353C341.633 113.353 343.721 110.253 343.721 106.429C343.721 102.606 341.633 99.5059 339.059 99.5059C336.484 99.5059 334.396 102.606 334.396 106.429C334.396 110.253 336.484 113.353 339.059 113.353Z" fill="#222222"/>
<path d="M167.629 109.357L404.618 56.9958L357.998 43.4206C357.998 43.4206 332.745 1.62848 326.004 0.755795C319.263 -0.116895 196.767 25.9668 196.767 25.9668L188.997 84.8443L167.629 109.357Z" fill="#222222"/>
<path d="M246.904 160.186C246.904 160.186 307.123 136.158 333.464 180.918L246.904 160.186Z" fill="white"/>
<path d="M333.463 181.926C333.289 181.924 333.118 181.877 332.968 181.788C332.818 181.7 332.694 181.573 332.609 181.422C306.986 137.923 247.856 160.884 247.273 161.117C247.015 161.217 246.728 161.211 246.475 161.1C246.222 160.989 246.023 160.783 245.923 160.525C245.822 160.268 245.828 159.982 245.939 159.729C246.051 159.476 246.258 159.278 246.515 159.178C247.137 158.945 307.841 135.344 334.337 180.336C334.468 180.566 334.504 180.838 334.439 181.094C334.374 181.35 334.212 181.572 333.988 181.712C333.836 181.83 333.654 181.904 333.463 181.926Z" fill="#222222"/>
<path d="M216.969 251.121L190.182 208.844L307.278 188.85L315.32 229.362L327.208 192.049L387.116 203.86L374.936 251.121H216.969Z" fill="#222222"/>
<path d="M367.016 159.445L377.81 157.954L383.387 198.179C383.574 199.524 383.217 200.888 382.396 201.971C381.576 203.054 380.358 203.767 379.01 203.953L378.375 204.041C377.028 204.227 375.662 203.871 374.577 203.051C373.493 202.232 372.779 201.016 372.592 199.671L367.016 159.445Z" fill="white"/>
<path d="M377.675 205.082C376.203 205.077 374.783 204.544 373.673 203.578C372.563 202.613 371.84 201.281 371.634 199.826L366.059 159.585C366.026 159.331 366.095 159.074 366.252 158.87C366.408 158.666 366.639 158.533 366.894 158.499L377.675 157.006C377.802 156.99 377.931 156.998 378.054 157.032C378.177 157.065 378.293 157.122 378.394 157.2C378.497 157.275 378.583 157.371 378.646 157.481C378.71 157.591 378.75 157.714 378.763 157.84L384.299 198.061C384.414 198.854 384.37 199.662 384.17 200.437C383.97 201.213 383.617 201.941 383.133 202.58C382.649 203.219 382.042 203.755 381.349 204.158C380.655 204.56 379.889 204.822 379.093 204.926L378.472 205.023C378.208 205.06 377.942 205.08 377.675 205.082ZM368.118 160.284L373.557 199.555C373.711 200.643 374.29 201.626 375.167 202.291C376.043 202.955 377.147 203.247 378.239 203.104H378.88C379.968 202.95 380.951 202.371 381.614 201.495C382.277 200.62 382.565 199.517 382.415 198.43L376.976 159.159L368.118 160.284Z" fill="#222222"/>
<path d="M376.141 121.535L358.727 123.941L364.181 163.283L381.595 160.877L376.141 121.535Z" fill="white"/>
<path d="M364.175 164.279C363.965 164.274 363.762 164.207 363.592 164.086C363.487 164.012 363.4 163.917 363.336 163.806C363.272 163.696 363.234 163.573 363.223 163.446L357.764 124.078C357.744 123.952 357.749 123.824 357.779 123.701C357.809 123.578 357.863 123.462 357.939 123.36C358.1 123.162 358.328 123.031 358.58 122.992L376.063 120.587C376.189 120.568 376.319 120.574 376.443 120.606C376.567 120.638 376.683 120.695 376.784 120.773C376.886 120.851 376.971 120.948 377.034 121.059C377.097 121.171 377.136 121.294 377.151 121.421L382.609 160.769C382.642 161.024 382.573 161.281 382.416 161.485C382.26 161.688 382.029 161.822 381.774 161.855L364.291 164.26L364.175 164.279ZM359.823 124.776L365.01 162.204L380.55 160.071L375.364 122.642L359.823 124.776Z" fill="#222222"/>
<path d="M379.219 188.986L374.12 189.69C370.72 190.16 368.344 193.293 368.815 196.688L376.597 252.82C377.068 256.215 380.206 258.586 383.607 258.116L388.706 257.412C392.106 256.942 394.482 253.809 394.011 250.414L386.229 194.282C385.758 190.887 382.62 188.516 379.219 188.986Z" fill="white"/>
<path d="M382.726 259.169C380.993 259.167 379.319 258.54 378.013 257.403C376.707 256.266 375.856 254.696 375.617 252.983L367.847 196.84C367.714 195.907 367.767 194.957 368.004 194.045C368.241 193.133 368.656 192.277 369.226 191.526C370.378 190.015 372.082 189.018 373.966 188.753L379.094 188.055C380.977 187.795 382.886 188.293 384.401 189.438C385.917 190.584 386.914 192.284 387.175 194.163L394.945 250.403C395.2 252.282 394.699 254.186 393.553 255.697C392.406 257.209 390.707 258.206 388.826 258.471L383.698 259.189L382.726 259.169ZM380.085 189.916C379.845 189.897 379.605 189.897 379.366 189.916L374.238 190.614C373.555 190.707 372.897 190.935 372.303 191.285C371.71 191.635 371.192 192.099 370.78 192.651C370.358 193.196 370.051 193.82 369.877 194.487C369.704 195.153 369.667 195.848 369.77 196.529L377.54 252.769C377.738 254.124 378.458 255.348 379.546 256.182C380.634 257.015 382.005 257.391 383.367 257.23L388.496 256.512C389.855 256.319 391.084 255.602 391.92 254.514C392.755 253.426 393.13 252.055 392.964 250.694L385.193 194.454C385.021 193.207 384.403 192.063 383.454 191.233C382.505 190.403 381.288 189.943 380.026 189.936L380.085 189.916Z" fill="#222222"/>
<path d="M366.04 159.313C391.821 159.313 412.72 138.448 412.72 112.711C412.72 86.9736 391.821 66.1094 366.04 66.1094C340.26 66.1094 319.361 86.9736 319.361 112.711C319.361 138.448 340.26 159.313 366.04 159.313Z" fill="white"/>
<path d="M366.002 160.283C356.853 160.279 347.899 157.647 340.208 152.7C332.517 147.754 326.414 140.703 322.628 132.388C318.841 124.074 317.532 114.847 318.855 105.81C320.178 96.7724 324.078 88.3059 330.089 81.421C336.101 74.5361 343.97 69.5235 352.757 66.9817C361.544 64.4398 370.878 64.4761 379.645 67.086C388.413 69.696 396.242 74.7695 402.2 81.7009C408.158 88.6322 411.992 97.1287 413.244 106.176C414.962 118.663 411.654 131.32 404.045 141.377C396.436 151.434 385.145 158.071 372.645 159.837C370.443 160.133 368.224 160.282 366.002 160.283ZM366.002 67.0603C363.89 67.0582 361.781 67.2007 359.689 67.4869C350.729 68.723 342.338 72.5838 335.577 78.581C328.815 84.5783 323.987 92.4426 321.703 101.179C319.419 109.916 319.781 119.133 322.744 127.664C325.707 136.195 331.138 143.658 338.349 149.107C345.561 154.557 354.229 157.75 363.258 158.281C372.287 158.812 381.271 156.658 389.073 152.092C396.876 147.526 403.147 140.752 407.093 132.627C411.04 124.502 412.484 115.392 411.243 106.448C409.716 95.5585 404.31 85.5832 396.015 78.3495C387.721 71.1157 377.093 67.1079 366.079 67.0603H366.002Z" fill="#222222"/>
<path d="M366.039 150.566C386.981 150.566 403.958 133.618 403.958 112.711C403.958 91.8039 386.981 74.8555 366.039 74.8555C345.098 74.8555 328.121 91.8039 328.121 112.711C328.121 133.618 345.098 150.566 366.039 150.566Z" fill="white"/>
<path d="M366.021 151.537C355.949 151.537 346.271 147.633 339.027 140.646C331.783 133.66 327.54 124.138 327.193 114.089C326.846 104.04 330.421 94.2485 337.165 86.7802C343.909 79.3119 353.295 74.7502 363.343 74.0572C373.391 73.3641 383.316 76.5938 391.025 83.0652C398.733 89.5366 403.623 98.7438 404.664 108.745C405.704 118.747 402.813 128.761 396.6 136.675C390.388 144.59 381.339 149.786 371.363 151.169C369.593 151.416 367.808 151.539 366.021 151.537ZM366.021 75.9042C364.299 75.9053 362.58 76.0219 360.873 76.2533C351.399 77.5648 342.804 82.4972 336.901 90.0111C330.998 97.5249 328.248 107.033 329.229 116.532C330.211 126.031 334.848 134.779 342.163 140.931C349.478 147.083 358.9 150.16 368.444 149.513C377.987 148.866 386.906 144.545 393.32 137.462C399.735 130.378 403.145 121.085 402.831 111.541C402.517 101.997 398.503 92.9473 391.637 86.2994C384.77 79.6515 375.586 75.9246 366.021 75.9042Z" fill="#222222"/>
<path d="M410.621 217.765C408.056 214.515 404.806 211.866 401.103 210.008C389.972 204.19 377.209 204.384 365.496 208.068C361.339 209.387 353.277 211.268 352.85 216.776C352.866 217.875 353.235 218.939 353.903 219.812C354.571 220.685 355.503 221.321 356.56 221.624C358.686 222.175 360.906 222.261 363.068 221.876C359.987 221.794 356.943 222.559 354.268 224.087C351.762 225.852 350.383 229.711 352.442 232.058C353.352 233.033 354.538 233.71 355.842 233.997C358.676 234.775 361.673 234.735 364.486 233.881C361.443 234.463 358.477 235.393 355.647 236.654C353.938 237.41 352.034 238.748 352.228 240.533C352.423 242.317 354.171 243.131 355.764 243.674C359.115 244.822 362.616 245.475 366.156 245.614C363.101 246.167 360.211 247.407 357.706 249.24C353.821 252.498 353.821 258.685 359.086 260.449C360.774 260.942 362.535 261.146 364.292 261.05C379.832 261.05 398.441 259.111 408.97 246.195C411.522 243.218 413.309 239.665 414.175 235.843C415.042 232.021 414.962 228.046 413.943 224.262C413.223 221.919 412.099 219.721 410.621 217.765Z" fill="white"/>
<path d="M364.176 261.962C362.352 262.051 360.527 261.834 358.775 261.322C357.614 260.969 356.571 260.309 355.757 259.41C354.943 258.512 354.388 257.41 354.152 256.222C353.93 254.788 354.082 253.321 354.592 251.962C355.102 250.604 355.954 249.399 357.066 248.464C358.318 247.427 359.737 246.607 361.262 246.04C359.281 245.705 357.332 245.206 355.434 244.547C352.851 243.655 351.549 242.336 351.258 240.668C350.966 239.001 352.462 236.984 355.143 235.723L356.522 235.141C356.168 235.076 355.818 234.992 355.473 234.889C353.979 234.575 352.62 233.802 351.588 232.678C351.114 232.099 350.768 231.427 350.57 230.705C350.373 229.984 350.329 229.229 350.442 228.489C350.592 227.46 350.948 226.471 351.488 225.581C352.029 224.692 352.743 223.92 353.589 223.311C354.193 222.888 354.845 222.537 355.531 222.264C354.426 221.814 353.481 221.043 352.82 220.05C352.158 219.058 351.81 217.89 351.821 216.698C352.268 211.036 359.28 208.941 363.904 207.525L365.147 207.157C378.123 203.065 391.041 203.783 401.492 209.096C405.334 211.039 408.698 213.807 411.34 217.203C412.892 219.234 414.081 221.517 414.856 223.951C415.932 227.89 416.025 232.031 415.128 236.013C414.23 239.995 412.37 243.698 409.709 246.797C398.694 260.236 379.619 261.981 364.234 262.001L364.176 261.962ZM362.33 235.219C360.173 235.766 358.067 236.499 356.036 237.41C355.123 237.818 353.045 238.923 353.2 240.358C353.356 241.793 354.832 242.297 356.075 242.705C359.335 243.844 362.745 244.497 366.196 244.644C366.429 244.647 366.653 244.736 366.825 244.894C366.996 245.051 367.105 245.266 367.128 245.497C367.155 245.729 367.096 245.962 366.964 246.155C366.832 246.347 366.635 246.485 366.41 246.544C363.496 247.083 360.738 248.255 358.329 249.977C357.467 250.684 356.804 251.603 356.405 252.644C356.007 253.684 355.886 254.81 356.056 255.911C356.225 256.764 356.627 257.553 357.216 258.193C357.806 258.833 358.56 259.298 359.397 259.538C360.977 260.004 362.628 260.188 364.273 260.081C379.25 260.081 397.762 258.413 408.252 245.594C410.712 242.745 412.437 239.338 413.276 235.67C414.116 232.003 414.045 228.186 413.069 224.553C412.355 222.334 411.265 220.255 409.845 218.405C407.385 215.232 404.246 212.648 400.656 210.842C390.652 205.703 378.278 205.024 365.788 208.902L364.525 209.29C360.407 210.531 354.152 212.413 353.802 216.757C353.839 217.644 354.155 218.497 354.707 219.193C355.258 219.89 356.016 220.395 356.872 220.635C357.994 220.993 359.173 221.138 360.349 221.062C361.262 220.965 362.155 220.907 363.01 220.849C363.262 220.842 363.508 220.93 363.698 221.095C363.889 221.26 364.011 221.49 364.04 221.741C364.056 221.994 363.975 222.244 363.812 222.439C363.649 222.634 363.418 222.759 363.165 222.788C362.291 222.788 361.378 222.982 360.446 223.001C358.451 223.13 356.521 223.757 354.832 224.824C354.2 225.281 353.667 225.859 353.263 226.526C352.859 227.192 352.593 227.932 352.482 228.703C352.405 229.176 352.428 229.66 352.549 230.124C352.669 230.588 352.884 231.022 353.181 231.398C353.971 232.208 354.986 232.762 356.095 232.989C357.993 233.5 359.973 233.632 361.922 233.377C362.699 233.183 363.496 233.008 364.273 232.853C364.517 232.806 364.77 232.854 364.979 232.987C365.189 233.121 365.339 233.33 365.399 233.57C365.455 233.812 365.418 234.065 365.296 234.281C365.174 234.496 364.975 234.658 364.739 234.734C363.951 234.962 363.145 235.124 362.33 235.219Z" fill="#222222"/>
<path d="M302.306 113.449C302.306 113.449 325.966 148.939 311.65 149.443C297.333 149.947 296.109 146.204 296.109 146.204" fill="white"/>
<path d="M309.085 150.568C297.08 150.568 295.351 147.29 295.118 146.689C295.038 146.434 295.059 146.158 295.179 145.92C295.299 145.681 295.507 145.498 295.759 145.409C296.012 145.329 296.286 145.352 296.522 145.471C296.758 145.591 296.938 145.799 297.022 146.049C297.022 146.049 298.77 149.055 311.61 148.59C312.236 148.647 312.865 148.524 313.423 148.236C313.981 147.947 314.444 147.504 314.757 146.961C317.826 141.007 306.21 121.265 301.47 114.167C301.343 113.946 301.305 113.685 301.362 113.437C301.42 113.188 301.57 112.971 301.781 112.829C301.993 112.686 302.251 112.629 302.503 112.669C302.755 112.708 302.983 112.842 303.141 113.042C304.947 115.757 320.624 139.805 316.544 147.95C316.078 148.818 315.374 149.537 314.514 150.021C313.654 150.505 312.674 150.735 311.688 150.684L309.085 150.568Z" fill="#222222"/>
<path d="M368.195 126.132C372.937 126.132 376.781 119.594 376.781 111.529C376.781 103.464 372.937 96.9258 368.195 96.9258C363.453 96.9258 359.609 103.464 359.609 111.529C359.609 119.594 363.453 126.132 368.195 126.132Z" fill="#94959B"/>
<path d="M263.124 123.34C266.74 123.34 269.671 118.052 269.671 111.529C269.671 105.006 266.74 99.7188 263.124 99.7188C259.509 99.7188 256.578 105.006 256.578 111.529C256.578 118.052 259.509 123.34 263.124 123.34Z" fill="#222222"/>
</svg>
