<svg width="24" height="24" viewBox="0 0 24 25" fill="none" xmlns="http://www.w3.org/2000/svg">
<path d="M9.86009 18.4999C9.72297 18.4995 9.58741 18.4708 9.46183 18.4158C9.33624 18.3607 9.22333 18.2804 9.13009 18.1799L4.27009 13.0099C4.08841 12.8163 3.99109 12.5585 3.99953 12.2931C4.00797 12.0277 4.12148 11.7766 4.31509 11.5949C4.50869 11.4132 4.76654 11.3159 5.03191 11.3244C5.29727 11.3328 5.54841 11.4463 5.73009 11.6399L9.85009 16.0299L18.2601 6.82991C18.3454 6.72363 18.4516 6.63593 18.5721 6.57217C18.6926 6.50842 18.8248 6.46997 18.9607 6.45919C19.0966 6.44841 19.2332 6.46551 19.3622 6.50946C19.4912 6.55341 19.6099 6.62327 19.711 6.71476C19.812 6.80624 19.8933 6.91742 19.9498 7.04145C20.0063 7.16549 20.0369 7.29977 20.0396 7.43605C20.0423 7.57233 20.0172 7.70772 19.9657 7.83392C19.9141 7.96012 19.8374 8.07446 19.7401 8.16991L10.6001 18.1699C10.5077 18.2723 10.3952 18.3544 10.2696 18.4112C10.144 18.468 10.0079 18.4982 9.87009 18.4999H9.86009Z" fill="#33C390"/>
</svg>
