<svg width="120" height="120" viewBox="0 0 120 120" fill="none" xmlns="http://www.w3.org/2000/svg">
<path d="M57.9426 17.3252C48.7769 17.3234 39.8164 20.0347 32.194 25.1162C24.5715 30.1978 18.6292 37.4214 15.1184 45.874C11.6076 54.3266 10.6858 63.6287 12.4697 72.6042C14.2535 81.5797 18.6628 89.8257 25.1402 96.2998C31.6176 102.774 39.8722 107.185 48.8606 108.977C57.849 110.768 67.1675 109.858 75.6382 106.363C84.1089 102.868 91.3514 96.9439 96.4502 89.3399C101.549 81.736 104.275 72.7935 104.284 63.6431C104.291 57.563 103.098 51.5412 100.772 45.922C98.4461 40.3028 95.0337 35.1963 90.7298 30.8946C86.4259 26.5929 81.3149 23.1803 75.689 20.852C70.0632 18.5236 64.0327 17.3252 57.9426 17.3252Z" fill="white" stroke="#222222" stroke-width="1.04545" stroke-linecap="round" stroke-linejoin="round"/>
<path d="M82.2377 51.726C83.4203 51.726 84.379 50.3023 84.379 48.5461C84.379 46.7899 83.4203 45.3662 82.2377 45.3662C81.0551 45.3662 80.0964 46.7899 80.0964 48.5461C80.0964 50.3023 81.0551 51.726 82.2377 51.726Z" fill="#222222"/>
<path d="M3.5 49.8906L112.35 25.8409L90.9366 19.6059C90.9366 19.6059 79.3378 0.410666 76.2419 0.0098382C73.1459 -0.390989 16.8831 11.5893 16.8831 11.5893L13.3143 38.6318L3.5 49.8906Z" fill="#222222"/>
<path d="M39.9114 73.2368C39.9114 73.2368 67.5699 62.2007 79.6682 82.7587L39.9114 73.2368Z" fill="white"/>
<path d="M79.668 83.2212C79.588 83.2205 79.5095 83.1987 79.4406 83.1581C79.3717 83.1174 79.3147 83.0593 79.2754 82.9896C67.5072 63.0106 40.3483 73.5568 40.0807 73.6637C39.9624 73.7098 39.8306 73.707 39.7143 73.6561C39.598 73.6051 39.5067 73.5102 39.4606 73.392C39.4144 73.2739 39.4172 73.1424 39.4682 73.0263C39.5193 72.9102 39.6144 72.8191 39.7327 72.773C40.0182 72.6661 67.8998 61.8259 80.0695 82.4908C80.1294 82.5966 80.1462 82.7214 80.1162 82.8392C80.0863 82.957 80.0121 83.0587 79.9089 83.1233C79.8391 83.1773 79.7558 83.2112 79.668 83.2212Z" fill="#222222"/>
<path d="M26.1621 115.003L13.8585 95.5848L67.6409 86.4014L71.3347 105.009L76.795 87.8711L104.311 93.2956L98.7166 115.003H26.1621Z" fill="#222222"/>
<path d="M95.0786 72.8965L100.037 72.2114L102.598 90.6871C102.684 91.3049 102.52 91.9313 102.143 92.4286C101.766 92.9259 101.207 93.2533 100.588 93.3388L100.296 93.3791C99.6773 93.4646 99.0498 93.3012 98.5517 92.9249C98.0536 92.5485 97.7257 91.99 97.64 91.3722L95.0786 72.8965Z" fill="white"/>
<path d="M99.9746 93.8573C99.2987 93.8554 98.646 93.6102 98.1364 93.1669C97.6268 92.7235 97.2943 92.1117 97.1998 91.4434L94.6392 72.9608C94.624 72.8439 94.6559 72.7258 94.7278 72.6323C94.7997 72.5388 94.9058 72.4776 95.0229 72.462L99.9746 71.7762C100.033 71.7686 100.092 71.7726 100.149 71.7879C100.205 71.8032 100.258 71.8295 100.305 71.8652C100.352 71.8997 100.391 71.9437 100.421 71.9943C100.45 72.0449 100.468 72.1011 100.474 72.1592L103.017 90.6329C103.07 90.997 103.05 91.3679 102.958 91.7242C102.866 92.0805 102.704 92.4149 102.481 92.7083C102.259 93.0016 101.98 93.2479 101.662 93.4329C101.343 93.6179 100.991 93.738 100.626 93.786L100.34 93.8306C100.219 93.8475 100.097 93.8565 99.9746 93.8573ZM95.585 73.2815L98.0831 91.3187C98.154 91.8185 98.4197 92.2701 98.8224 92.5754C99.225 92.8806 99.7321 93.0148 100.233 92.9488H100.528C101.028 92.8781 101.479 92.6125 101.784 92.2102C102.088 91.8079 102.22 91.3016 102.152 90.8021L99.6534 72.7649L95.585 73.2815Z" fill="#222222"/>
<path d="M99.2696 55.4837L91.2714 56.5889L93.7765 74.6587L101.775 73.5535L99.2696 55.4837Z" fill="white"/>
<path d="M93.7736 75.116C93.6775 75.1136 93.5843 75.0826 93.506 75.0269C93.4579 74.9932 93.4178 74.9495 93.3885 74.8987C93.3592 74.8479 93.3415 74.7913 93.3365 74.7329L90.8293 56.6512C90.82 56.5937 90.8223 56.5349 90.8361 56.4783C90.8499 56.4217 90.8749 56.3684 90.9096 56.3216C90.9834 56.2307 91.0883 56.1704 91.2041 56.1523L99.234 55.0478C99.2921 55.0391 99.3514 55.0422 99.4084 55.0568C99.4653 55.0715 99.5187 55.0975 99.5654 55.1333C99.612 55.169 99.651 55.2138 99.6799 55.2649C99.7088 55.3161 99.7271 55.3725 99.7336 55.4309L102.241 73.5037C102.256 73.6206 102.224 73.7388 102.152 73.8323C102.08 73.9258 101.974 73.987 101.857 74.0025L93.8272 75.107L93.7736 75.116ZM91.7751 56.9718L94.1573 74.1629L101.295 73.1831L98.9128 55.992L91.7751 56.9718Z" fill="#222222"/>
<path d="M100.684 86.4643L98.3418 86.7879C96.7799 87.0038 95.6889 88.4428 95.9051 90.0021L99.4793 115.783C99.6955 117.343 101.137 118.432 102.699 118.216L105.041 117.892C106.603 117.677 107.694 116.238 107.478 114.678L103.903 88.897C103.687 87.3376 102.246 86.2485 100.684 86.4643Z" fill="white"/>
<path d="M102.294 118.7C101.498 118.699 100.73 118.411 100.13 117.889C99.5295 117.366 99.1386 116.645 99.0289 115.858L95.46 90.0718C95.399 89.6434 95.4236 89.2071 95.5323 88.7882C95.6411 88.3693 95.8318 87.9761 96.0935 87.6312C96.6229 86.937 97.4052 86.4793 98.2705 86.3574L100.626 86.0368C101.491 85.9175 102.368 86.1462 103.064 86.6723C103.76 87.1985 104.218 87.9791 104.338 88.8426L107.906 114.674C108.023 115.537 107.793 116.411 107.267 117.105C106.74 117.8 105.96 118.258 105.096 118.379L102.74 118.709L102.294 118.7ZM101.081 86.8919C100.971 86.883 100.861 86.883 100.751 86.8919L98.3954 87.2125C98.0817 87.2552 97.7797 87.36 97.507 87.5205C97.2344 87.6811 96.9965 87.8944 96.8073 88.1478C96.6135 88.3981 96.4724 88.685 96.3927 88.9911C96.313 89.2973 96.2962 89.6164 96.3433 89.9292L99.9122 115.76C100.003 116.383 100.334 116.945 100.834 117.328C101.334 117.71 101.963 117.883 102.589 117.809L104.944 117.479C105.569 117.391 106.133 117.061 106.517 116.562C106.901 116.062 107.073 115.432 106.996 114.807L103.427 88.9762C103.348 88.4031 103.064 87.8778 102.629 87.4966C102.193 87.1154 101.634 86.9039 101.054 86.9008L101.081 86.8919Z" fill="#222222"/>
<path d="M94.6307 72.8357C106.472 72.8357 116.071 63.2527 116.071 51.4315C116.071 39.6103 106.472 30.0273 94.6307 30.0273C82.7898 30.0273 73.1909 39.6103 73.1909 51.4315C73.1909 63.2527 82.7898 72.8357 94.6307 72.8357Z" fill="white"/>
<path d="M94.6127 73.2804C90.4107 73.2785 86.298 72.0695 82.7656 69.7977C79.2331 67.5259 76.43 64.2873 74.6909 60.4684C72.9519 56.6495 72.3503 52.4117 72.958 48.2608C73.5656 44.1099 75.3569 40.2213 78.118 37.059C80.8791 33.8967 84.4933 31.5945 88.5293 30.427C92.5653 29.2595 96.8525 29.2762 100.879 30.4749C104.906 31.6737 108.502 34.004 111.239 37.1876C113.975 40.3711 115.736 44.2736 116.311 48.4291C117.1 54.1641 115.581 59.9775 112.086 64.5967C108.591 69.2159 103.405 72.2647 97.6641 73.0755C96.6526 73.2115 95.6333 73.2799 94.6127 73.2804ZM94.6127 30.4631C93.6428 30.4622 92.674 30.5276 91.713 30.6591C87.598 31.2268 83.744 33.0001 80.6385 35.7546C77.533 38.5092 75.3154 42.1212 74.2663 46.1341C73.2172 50.1469 73.3836 54.3802 74.7445 58.2986C76.1055 62.2169 78.5997 65.6444 81.912 68.1475C85.2242 70.6506 89.2055 72.1168 93.3525 72.3608C97.4994 72.6048 101.626 71.6156 105.209 69.5183C108.793 67.4209 111.674 64.3097 113.486 60.578C115.299 56.8463 115.962 52.6619 115.392 48.5538C114.691 43.5524 112.208 38.9707 108.398 35.6483C104.588 32.3258 99.7069 30.485 94.6484 30.4631H94.6127Z" fill="#222222"/>
<path d="M94.63 68.818C104.249 68.818 112.046 61.0335 112.046 51.431C112.046 41.8284 104.249 34.0439 94.63 34.0439C85.0115 34.0439 77.2141 41.8284 77.2141 51.431C77.2141 61.0335 85.0115 68.818 94.63 68.818Z" fill="white"/>
<path d="M94.6219 69.2639C89.9959 69.264 85.5506 67.4705 82.2235 64.2616C78.8964 61.0528 76.9476 56.6794 76.7881 52.0638C76.6285 47.4482 78.2707 42.9511 81.3683 39.5209C84.4658 36.0907 88.7767 33.9955 93.3917 33.6772C98.0068 33.3588 102.565 34.8422 106.106 37.8146C109.647 40.7869 111.893 45.0158 112.37 49.6094C112.848 54.2031 111.52 58.8025 108.667 62.4376C105.814 66.0728 101.658 68.4596 97.0755 69.0947C96.2626 69.2083 95.4427 69.2649 94.6219 69.2639ZM94.6219 34.5255C93.8311 34.526 93.0412 34.5796 92.2576 34.6859C87.9059 35.2882 83.9584 37.5537 81.2471 41.0048C78.5358 44.4559 77.2724 48.8231 77.7232 53.186C78.1741 57.5488 80.3039 61.5666 83.6638 64.3924C87.0237 67.2182 91.3513 68.6315 95.7345 68.3342C100.118 68.037 104.214 66.0525 107.16 62.799C110.107 59.5456 111.673 55.2772 111.529 50.8936C111.384 46.5099 109.541 42.3534 106.387 39.3C103.233 36.2466 99.0152 34.5349 94.6219 34.5255Z" fill="#222222"/>
<path d="M115.107 99.6823C113.928 98.1894 112.436 96.9731 110.735 96.1194C105.622 93.4472 99.7607 93.5363 94.3807 95.2287C92.4713 95.8344 88.7686 96.6984 88.5724 99.2281C88.5795 99.7327 88.749 100.222 89.0559 100.623C89.3627 101.024 89.7907 101.315 90.2765 101.455C91.2529 101.708 92.2723 101.747 93.2654 101.571C91.8504 101.533 90.4521 101.884 89.2237 102.586C88.0727 103.397 87.4393 105.169 88.385 106.247C88.803 106.695 89.3475 107.006 89.9464 107.138C91.2482 107.495 92.625 107.477 93.9167 107.084C92.519 107.352 91.1568 107.779 89.8571 108.358C89.072 108.705 88.1976 109.32 88.2869 110.139C88.3761 110.959 89.1791 111.333 89.9107 111.582C91.4499 112.11 93.058 112.41 94.684 112.473C93.2805 112.727 91.9533 113.297 90.8029 114.139C89.0185 115.635 89.0185 118.477 91.4364 119.287C92.212 119.514 93.0205 119.607 93.8275 119.563C100.965 119.563 109.513 118.673 114.348 112.74C115.521 111.373 116.341 109.741 116.739 107.986C117.137 106.23 117.1 104.404 116.632 102.666C116.302 101.59 115.785 100.581 115.107 99.6823Z" fill="white"/>
<path d="M93.7741 119.982C92.9366 120.023 92.0983 119.924 91.2937 119.688C90.7605 119.527 90.2813 119.223 89.9073 118.81C89.5334 118.398 89.2786 117.892 89.1703 117.346C89.0684 116.687 89.138 116.014 89.3724 115.39C89.6068 114.766 89.998 114.212 90.5086 113.783C91.0838 113.306 91.7353 112.93 92.4357 112.67C91.526 112.516 90.6307 112.286 89.7591 111.984C88.5725 111.574 87.9747 110.968 87.8409 110.202C87.707 109.436 88.394 108.51 89.6253 107.931L90.2588 107.664C90.0962 107.634 89.9354 107.595 89.777 107.548C89.0907 107.403 88.4668 107.048 87.9925 106.532C87.775 106.266 87.6158 105.958 87.5251 105.626C87.4345 105.295 87.4144 104.948 87.4661 104.608C87.535 104.136 87.6984 103.681 87.9467 103.273C88.195 102.864 88.5231 102.51 88.9115 102.23C89.1891 102.036 89.4886 101.874 89.8037 101.749C89.296 101.542 88.8621 101.188 88.5583 100.732C88.2545 100.277 88.0947 99.7403 88.0996 99.1928C88.3048 96.5919 91.5257 95.6299 93.6492 94.9797L94.2202 94.8104C100.18 92.931 106.113 93.2606 110.913 95.7012C112.678 96.5932 114.223 97.8648 115.437 99.4244C116.15 100.357 116.696 101.406 117.052 102.524C117.546 104.333 117.589 106.235 117.176 108.064C116.764 109.893 115.91 111.594 114.687 113.017C109.629 119.19 100.867 119.991 93.8008 120L93.7741 119.982ZM92.9265 107.699C91.9354 107.95 90.9682 108.287 90.0357 108.706C89.6164 108.893 88.6617 109.401 88.7331 110.06C88.8045 110.719 89.4825 110.95 90.0535 111.137C91.5508 111.661 93.1171 111.961 94.702 112.028C94.809 112.03 94.9118 112.071 94.9907 112.143C95.0697 112.215 95.1193 112.314 95.1302 112.42C95.1423 112.527 95.1156 112.634 95.055 112.722C94.9943 112.81 94.9038 112.874 94.8001 112.901C93.4621 113.149 92.1949 113.687 91.0885 114.478C90.6926 114.803 90.3881 115.225 90.2051 115.703C90.0221 116.18 89.9668 116.698 90.0446 117.203C90.1225 117.595 90.3069 117.957 90.5776 118.251C90.8483 118.545 91.1949 118.759 91.5792 118.869C92.3052 119.083 93.0633 119.168 93.8187 119.118C100.698 119.118 109.2 118.352 114.018 112.465C115.148 111.156 115.94 109.591 116.326 107.907C116.712 106.222 116.679 104.469 116.231 102.8C115.903 101.781 115.402 100.826 114.75 99.9767C113.62 98.5192 112.178 97.3323 110.53 96.5028C105.935 94.1424 100.252 93.8306 94.5146 95.6121L93.9347 95.7902C92.0432 96.3603 89.1703 97.2243 89.0097 99.2195C89.0264 99.627 89.1717 100.019 89.4249 100.339C89.6781 100.659 90.0262 100.89 90.4194 101.001C90.9348 101.165 91.4765 101.232 92.0164 101.197C92.4357 101.152 92.8462 101.126 93.2387 101.099C93.3546 101.096 93.4673 101.136 93.5548 101.212C93.6424 101.288 93.6983 101.394 93.7116 101.509C93.7193 101.625 93.6819 101.74 93.6071 101.829C93.5324 101.919 93.4261 101.976 93.3101 101.99C92.9086 101.99 92.4893 102.079 92.061 102.088C91.1449 102.147 90.2583 102.435 89.4825 102.925C89.1923 103.135 88.9472 103.4 88.7618 103.706C88.5763 104.012 88.4543 104.352 88.403 104.706C88.368 104.924 88.3785 105.146 88.4337 105.359C88.489 105.572 88.5879 105.771 88.7241 105.945C89.0869 106.316 89.5532 106.571 90.0625 106.675C90.9342 106.91 91.8438 106.97 92.7391 106.853C93.096 106.764 93.4618 106.684 93.8187 106.613C93.9308 106.591 94.0469 106.613 94.1432 106.674C94.2395 106.736 94.3085 106.832 94.3362 106.942C94.3618 107.053 94.3448 107.169 94.2887 107.268C94.2325 107.367 94.1412 107.442 94.0328 107.477C93.6708 107.581 93.3008 107.656 92.9265 107.699Z" fill="#222222"/>
<path d="M65.3574 51.7705C65.3574 51.7705 76.2245 68.0708 69.6489 68.3024C63.0733 68.534 62.5112 66.8149 62.5112 66.8149" fill="white"/>
<path d="M68.4711 68.8191C62.9572 68.8191 62.1631 67.3137 62.0561 67.0376C62.019 66.9206 62.029 66.7939 62.084 66.6841C62.1389 66.5744 62.2345 66.4903 62.3505 66.4497C62.4665 66.413 62.5922 66.4233 62.7007 66.4783C62.8092 66.5333 62.8917 66.6286 62.9304 66.7437C62.9304 66.7437 63.7334 68.1243 69.6309 67.9105C69.9183 67.937 70.2073 67.8805 70.4635 67.7479C70.7197 67.6153 70.9324 67.412 71.0763 67.1623C72.486 64.4278 67.1506 55.3602 64.9736 52.1001C64.9152 51.9986 64.8975 51.8788 64.924 51.7647C64.9505 51.6507 65.0193 51.5509 65.1165 51.4854C65.2137 51.42 65.3322 51.3937 65.448 51.4119C65.5639 51.4301 65.6685 51.4914 65.7409 51.5835C66.5707 52.8305 73.7708 63.8755 71.8971 67.6166C71.6829 68.0155 71.3594 68.3454 70.9645 68.5678C70.5695 68.7902 70.1194 68.8958 69.6666 68.8725L68.4711 68.8191Z" fill="#222222"/>
<path d="M95.6203 57.595C97.7983 57.595 99.5639 54.5921 99.5639 50.8878C99.5639 47.1836 97.7983 44.1807 95.6203 44.1807C93.4424 44.1807 91.6768 47.1836 91.6768 50.8878C91.6768 54.5921 93.4424 57.595 95.6203 57.595Z" fill="#94959B"/>
<path d="M47.3612 56.3129C49.0218 56.3129 50.368 53.8843 50.368 50.8884C50.368 47.8925 49.0218 45.4639 47.3612 45.4639C45.7007 45.4639 44.3545 47.8925 44.3545 50.8884C44.3545 53.8843 45.7007 56.3129 47.3612 56.3129Z" fill="#222222"/>
</svg>
