<svg width="30" height="30" viewBox="0 0 30 30" fill="none" xmlns="http://www.w3.org/2000/svg">
<g clip-path="url(#clip0_583_12635)">
<path d="M4.93354 5.625H25.0664C25.2482 5.62506 25.4261 5.678 25.5784 5.77738C25.7307 5.87676 25.8508 6.01829 25.9241 6.18472C25.9973 6.35115 26.0206 6.5353 25.9911 6.71473C25.9616 6.89417 25.8805 7.06114 25.7578 7.19531L18.0585 15.668C17.8983 15.8395 17.8102 16.0661 17.8124 16.3008V22.9336C17.8139 23.0894 17.776 23.243 17.7022 23.3803C17.6285 23.5175 17.5213 23.6339 17.3906 23.7187L13.6406 26.2148C13.4999 26.3075 13.3369 26.3605 13.1686 26.3684C13.0004 26.3762 12.8331 26.3386 12.6844 26.2595C12.5357 26.1803 12.4111 26.0626 12.3237 25.9187C12.2362 25.7747 12.1892 25.6098 12.1874 25.4414V16.3008C12.1897 16.0661 12.1016 15.8395 11.9414 15.668L4.24213 7.19531C4.11939 7.06114 4.03831 6.89417 4.00878 6.71473C3.97925 6.5353 4.00255 6.35115 4.07582 6.18472C4.1491 6.01829 4.2692 5.87676 4.4215 5.77738C4.57379 5.678 4.75169 5.62506 4.93354 5.625V5.625Z" stroke="#222222" stroke-width="1.5" stroke-linecap="round" stroke-linejoin="round"/>
</g>
<defs>
<clipPath id="clip0_583_12635">
<rect width="30" height="30" fill="white"/>
</clipPath>
</defs>
</svg>
