<svg width="24" height="24" viewBox="0 0 24 24" fill="none" xmlns="http://www.w3.org/2000/svg">
<path d="M12.534 19.8653L20.1278 12.2715C21.9934 10.3965 22.2653 7.33089 20.5028 5.37152C20.0607 4.87774 19.5227 4.47928 18.9215 4.20047C18.3203 3.92166 17.6685 3.76836 17.0061 3.74993C16.3436 3.73151 15.6844 3.84834 15.0686 4.0933C14.4528 4.33826 13.8934 4.7062 13.4246 5.17464L11.9996 6.60902L10.7715 5.37152C8.89652 3.50589 5.83089 3.23402 3.87152 4.99652C3.37774 5.43853 2.97928 5.97659 2.70047 6.5778C2.42166 7.17901 2.26836 7.83075 2.24993 8.49321C2.23151 9.15567 2.34834 9.81493 2.5933 10.4307C2.83826 11.0465 3.2062 11.6059 3.67464 12.0746L11.4653 19.8653C11.6075 20.0061 11.7995 20.0851 11.9996 20.0851C12.1998 20.0851 12.3918 20.0061 12.534 19.8653V19.8653Z" stroke="#222222" stroke-width="1.5" stroke-linecap="round" stroke-linejoin="round"/>
</svg>
