<svg width="97" height="96" viewBox="0 0 97 96" fill="none" xmlns="http://www.w3.org/2000/svg">
<rect x="0.333496" width="96" height="96" rx="16" fill="#3CA1E4" fill-opacity="0.15"/>
<path fill-rule="evenodd" clip-rule="evenodd" d="M58.1673 37.8102C58.1673 41.2712 57.3073 45.7852 55.9843 45.1002C55.4433 46.8669 54.3075 48.3919 52.7698 49.4163C51.2321 50.4407 49.3872 50.9013 47.5485 50.7199C45.7097 50.5385 43.9904 49.7263 42.6825 48.4212C41.3746 47.1161 40.5587 45.3985 40.3733 43.5602C39.0603 41.2632 37.3383 36.6602 41.7653 33.0722C41.8453 33.0462 41.8933 32.8302 41.9653 32.5122C42.2393 31.3092 42.8463 28.6352 46.6753 29.1462C49.6283 29.5392 58.1673 31.0642 58.1673 37.8112V37.8102ZM54.3613 39.9922C54.3613 39.9922 53.9093 41.3142 54.3333 42.7872C54.3278 44.3577 53.7067 45.8636 52.6033 46.9813C51.4999 48.099 50.0022 48.7395 48.4319 48.7653C46.8615 48.7911 45.3436 48.2001 44.2041 47.1192C43.0646 46.0383 42.3944 44.5537 42.3373 42.9842C42.4823 42.4342 42.4823 41.5032 42.4813 40.4682C42.4803 38.6012 42.4783 36.3982 43.3333 35.5002C49.3223 39.4892 54.3613 39.9922 54.3613 39.9922Z" fill="#3889C6"/>
<path d="M37.3335 59.9997C37.3335 58.9177 37.9065 57.9697 38.7665 57.4417C38.7337 57.3172 38.7031 57.1922 38.6745 57.0667C38.5227 56.3835 38.4043 55.6934 38.3195 54.9987C38.2336 54.3331 38.1818 53.6636 38.1645 52.9927C33.9435 54.6497 30.3335 57.5377 30.3335 60.5697V65.9997H66.3335V60.5697C66.3335 57.6657 63.0235 54.8947 59.0355 53.2097V53.2377C59.0535 53.8477 59.0195 54.5477 58.9535 55.2207C58.8935 55.8447 58.8045 56.4667 58.6975 56.9997H59.3335C59.5192 56.9998 59.7011 57.0516 59.859 57.1493C60.0169 57.2469 60.1445 57.3866 60.2275 57.5527L61.2275 59.5527C61.2975 59.6917 61.3335 59.8447 61.3335 59.9997V61.9997C61.3335 62.2649 61.2281 62.5193 61.0406 62.7068C60.8531 62.8944 60.5987 62.9997 60.3335 62.9997H58.3335V60.9997H59.3335V60.2357L58.7155 58.9997H55.9515L55.3335 60.2357V60.9997H56.3335V62.9997H54.3335C54.0683 62.9997 53.8139 62.8944 53.6264 62.7068C53.4389 62.5193 53.3335 62.2649 53.3335 61.9997V59.9997C53.3335 59.8447 53.3695 59.6917 53.4395 59.5527L54.4395 57.5527C54.5225 57.3866 54.6501 57.2469 54.808 57.1493C54.9659 57.0516 55.1478 56.9998 55.3335 56.9997H56.6485C56.6705 56.9137 56.6925 56.8187 56.7145 56.7137C56.8145 56.2427 56.9035 55.6457 56.9635 55.0287C57.0235 54.4107 57.0515 53.7977 57.0365 53.2937C57.0328 53.0849 57.0164 52.8765 56.9875 52.6697C56.9655 52.5277 56.9435 52.4627 56.9395 52.4487C56.9385 52.4457 56.9375 52.4447 56.9395 52.4467L56.9425 52.4457C56.4119 52.2809 55.8752 52.1364 55.3335 52.0127C54.8305 51.8977 54.3105 52.5897 54.0835 53.0227H42.3335C42.3043 52.967 42.2756 52.911 42.2475 52.8547C42.0355 52.4327 41.7745 51.9117 41.3335 52.0127C40.9485 52.0997 40.5635 52.1997 40.1785 52.3097C40.1661 52.4851 40.1608 52.6609 40.1625 52.8367C40.1665 53.3897 40.2195 54.0667 40.3045 54.7507C40.3895 55.4327 40.5045 56.0967 40.6245 56.6207C40.6585 56.7717 40.6925 56.9077 40.7245 57.0247C41.2962 57.0999 41.8341 57.3382 42.2739 57.7112C42.7137 58.0841 43.0367 58.5759 43.2041 59.1277C43.3716 59.6795 43.3766 60.2678 43.2183 60.8223C43.0601 61.3768 42.7454 61.874 42.312 62.2543C41.8785 62.6345 41.3446 62.8818 40.7743 62.9666C40.2039 63.0513 39.6212 62.9698 39.0959 62.732C38.5706 62.4941 38.125 62.1099 37.8125 61.6253C37.4999 61.1407 37.3336 60.5763 37.3335 59.9997Z" fill="#3889C6"/>
<path d="M41.3335 60.0004C41.3335 60.5744 40.8715 61.0154 40.3335 61.0154C39.7955 61.0154 39.3335 60.5754 39.3335 60.0004C39.3335 59.4264 39.7955 58.9854 40.3335 58.9854C40.8715 58.9854 41.3335 59.4254 41.3335 60.0004Z" fill="#3889C6"/>
</svg>
