<svg width="65" height="64" viewBox="0 0 65 64" fill="none" xmlns="http://www.w3.org/2000/svg">
<rect x="0.333374" width="64" height="64" rx="16" fill="#33C390" fill-opacity="0.15"/>
<path fill-rule="evenodd" clip-rule="evenodd" d="M17.3334 18.3613V28.3498C17.3334 42.6435 29.4868 47.374 31.9072 48.1738C32.1822 48.2754 32.4845 48.2754 32.7595 48.1738C35.18 47.374 47.3334 42.6435 47.3334 28.3498V18.3613C47.3334 18.0003 47.1897 17.654 46.934 17.3987C46.6782 17.1434 46.3314 17 45.9697 17H18.697C18.3354 17 17.9885 17.1434 17.7328 17.3987C17.477 17.654 17.3334 18.0003 17.3334 18.3613ZM40.0712 27.9044C40.5707 27.4279 40.5893 26.6367 40.1128 26.1372C39.6363 25.6377 38.845 25.619 38.3455 26.0956L30.0372 34.0217L26.322 30.4713C25.8229 29.9943 25.0316 30.0123 24.5547 30.5114C24.0777 31.0105 24.0957 31.8017 24.5948 32.2787L29.1729 36.6537C29.6558 37.1152 30.4161 37.1155 30.8993 36.6544L40.0712 27.9044Z" fill="#33C390"/>
</svg>
