<svg width="96" height="96" viewBox="0 0 96 96" fill="none" xmlns="http://www.w3.org/2000/svg">
<rect width="96" height="96" rx="16" fill="#FF4F60" fill-opacity="0.15"/>
<g clip-path="url(#clip0_27_272)">
<path d="M63 30H58.5V28.5C58.5 28.1022 58.342 27.7206 58.0607 27.4393C57.7794 27.158 57.3978 27 57 27C56.6022 27 56.2206 27.158 55.9393 27.4393C55.658 27.7206 55.5 28.1022 55.5 28.5V30H40.5V28.5C40.5 28.1022 40.342 27.7206 40.0607 27.4393C39.7794 27.158 39.3978 27 39 27C38.6022 27 38.2206 27.158 37.9393 27.4393C37.658 27.7206 37.5 28.1022 37.5 28.5V30H33C32.2044 30 31.4413 30.3161 30.8787 30.8787C30.3161 31.4413 30 32.2044 30 33V63C30 63.7957 30.3161 64.5587 30.8787 65.1213C31.4413 65.6839 32.2044 66 33 66H63C63.7957 66 64.5587 65.6839 65.1213 65.1213C65.6839 64.5587 66 63.7957 66 63V33C66 32.2044 65.6839 31.4413 65.1213 30.8787C64.5587 30.3161 63.7957 30 63 30ZM55.7812 49.0875L47.025 57.3375C46.8889 57.4709 46.7276 57.5761 46.5506 57.6469C46.3736 57.7177 46.1844 57.7527 45.9938 57.75C45.6095 57.7515 45.2397 57.6036 44.9625 57.3375L40.2188 52.8375C40.0664 52.7046 39.9425 52.5422 39.8544 52.3601C39.7664 52.1781 39.7161 51.9801 39.7066 51.7781C39.697 51.5761 39.7284 51.3743 39.7988 51.1847C39.8693 50.9952 39.9773 50.8218 40.1164 50.6751C40.2556 50.5283 40.423 50.4113 40.6085 50.3309C40.7941 50.2505 40.9939 50.2084 41.1962 50.2072C41.3984 50.2061 41.5987 50.2458 41.7852 50.324C41.9717 50.4023 42.1404 50.5174 42.2812 50.6625L45.9938 54.1875L53.7188 46.9125C53.8604 46.7749 54.0282 46.6671 54.2121 46.5953C54.3961 46.5235 54.5926 46.4892 54.79 46.4944C54.9874 46.4997 55.1817 46.5443 55.3616 46.6258C55.5415 46.7073 55.7033 46.8239 55.8375 46.9688C56.1107 47.2573 56.2582 47.6425 56.2476 48.0398C56.2371 48.437 56.0694 48.8138 55.7812 49.0875ZM63 39H33V33H37.5V34.5C37.5 34.8978 37.658 35.2794 37.9393 35.5607C38.2206 35.842 38.6022 36 39 36C39.3978 36 39.7794 35.842 40.0607 35.5607C40.342 35.2794 40.5 34.8978 40.5 34.5V33H55.5V34.5C55.5 34.8978 55.658 35.2794 55.9393 35.5607C56.2206 35.842 56.6022 36 57 36C57.3978 36 57.7794 35.842 58.0607 35.5607C58.342 35.2794 58.5 34.8978 58.5 34.5V33H63V39Z" fill="#E25A9F"/>
</g>
<defs>
<clipPath id="clip0_27_272">
<rect width="48" height="48" fill="white" transform="translate(24 24)"/>
</clipPath>
</defs>
</svg>
