<svg width="64" height="64" viewBox="0 0 64 64" fill="none" xmlns="http://www.w3.org/2000/svg">
<rect width="64" height="64" rx="16" fill="#FF4F60" fill-opacity="0.15"/>
<path fill-rule="evenodd" clip-rule="evenodd" d="M47 32C47 40.2843 40.2843 47 32 47C23.7157 47 17 40.2843 17 32C17 23.7157 23.7157 17 32 17C40.2843 17 47 23.7157 47 32ZM27.9375 28.875C27.9375 29.7379 27.2379 30.4375 26.375 30.4375C25.5121 30.4375 24.8125 29.7379 24.8125 28.875C24.8125 28.0121 25.5121 27.3125 26.375 27.3125C27.2379 27.3125 27.9375 28.0121 27.9375 28.875ZM37.625 30.4375C38.4879 30.4375 39.1875 29.7379 39.1875 28.875C39.1875 28.0121 38.4879 27.3125 37.625 27.3125C36.7621 27.3125 36.0625 28.0121 36.0625 28.875C36.0625 29.7379 36.7621 30.4375 37.625 30.4375ZM26.581 35.1224C26.2345 34.5253 25.4695 34.3223 24.8725 34.6688C24.2754 35.0154 24.0723 35.7803 24.4189 36.3774C25.1896 37.7052 26.2955 38.8073 27.6259 39.5733C28.9564 40.3394 30.4647 40.7426 32 40.7426C33.5352 40.7426 35.0435 40.3394 36.374 39.5733C37.7044 38.8073 38.8103 37.7052 39.581 36.3774C39.9276 35.7803 39.7245 35.0154 39.1275 34.6688C38.5304 34.3223 37.7654 34.5253 37.4189 35.1224C36.868 36.0715 36.0775 36.8592 35.1265 37.4068C34.1755 37.9544 33.0973 38.2426 32 38.2426C30.9026 38.2426 29.8244 37.9544 28.8734 37.4068C27.9224 36.8592 27.1319 36.0715 26.581 35.1224Z" fill="#E25A9F"/>
</svg>
