<svg width="97" height="96" viewBox="0 0 97 96" fill="none" xmlns="http://www.w3.org/2000/svg">
<rect x="0.666992" width="96" height="96" rx="16" fill="#FFC042" fill-opacity="0.15"/>
<path d="M67.807 49.3204C67.527 48.5204 66.767 48.0004 65.867 48.0004H51.487C50.567 48.0004 49.827 48.5204 49.527 49.3204L46.667 57.5404V68.5604C46.667 69.3204 47.307 70.0004 48.067 70.0004H49.307C50.067 70.0004 50.667 69.2404 50.667 68.4804V66.0004H66.667V68.4804C66.667 69.2404 67.287 70.0004 68.047 70.0004H69.267C70.027 70.0004 70.667 69.3204 70.667 68.5604V57.5404L67.807 49.3204ZM51.487 50.0004H65.867L67.927 56.0004H49.427L51.487 50.0004ZM50.667 62.0004C49.567 62.0004 48.667 61.1004 48.667 60.0004C48.667 58.9004 49.567 58.0004 50.667 58.0004C51.767 58.0004 52.667 58.9004 52.667 60.0004C52.667 61.1004 51.767 62.0004 50.667 62.0004ZM66.667 62.0004C65.567 62.0004 64.667 61.1004 64.667 60.0004C64.667 58.9004 65.567 58.0004 66.667 58.0004C67.767 58.0004 68.667 58.9004 68.667 60.0004C68.667 61.1004 67.767 62.0004 66.667 62.0004ZM37.987 53.0604L38.667 58.0004L36.567 60.1204L33.047 53.7604L26.667 50.2204L28.787 48.0604L33.787 48.8004L41.527 41.0604L26.667 33.2404L29.507 30.4204L47.887 34.6604L55.667 26.8804C56.787 25.7104 58.787 25.7104 59.907 26.8804C61.087 28.0604 61.087 30.0004 59.907 31.1204L52.127 38.9004L53.767 46.0004H51.487C49.747 46.0004 48.247 47.0004 47.667 48.6204L47.607 48.7404L45.787 45.2604L37.987 53.0604Z" fill="#FFC042"/>
</svg>
