<svg width="48" height="48" viewBox="0 0 48 48" fill="none" xmlns="http://www.w3.org/2000/svg">
<rect width="48" height="48" rx="24" fill="#F6F8FE"/>
<path d="M24 27.75C26.0711 27.75 27.75 26.0711 27.75 24C27.75 21.9289 26.0711 20.25 24 20.25C21.9289 20.25 20.25 21.9289 20.25 24C20.25 26.0711 21.9289 27.75 24 27.75Z" stroke="#222222" stroke-width="1.5" stroke-linecap="round" stroke-linejoin="round"/>
<path d="M28.125 15.375H19.875C17.3897 15.375 15.375 17.3897 15.375 19.875V28.125C15.375 30.6103 17.3897 32.625 19.875 32.625H28.125C30.6103 32.625 32.625 30.6103 32.625 28.125V19.875C32.625 17.3897 30.6103 15.375 28.125 15.375Z" stroke="#222222" stroke-width="1.5" stroke-linecap="round" stroke-linejoin="round"/>
<path d="M28.875 20.0625C29.3928 20.0625 29.8125 19.6428 29.8125 19.125C29.8125 18.6072 29.3928 18.1875 28.875 18.1875C28.3572 18.1875 27.9375 18.6072 27.9375 19.125C27.9375 19.6428 28.3572 20.0625 28.875 20.0625Z" fill="#222222"/>
</svg>
