<svg width="29" height="30" viewBox="0 0 29 30" fill="none" xmlns="http://www.w3.org/2000/svg">
<path d="M23.187 13.6885H4.813C4.36399 13.6885 4 14.0522 4 14.501C4 14.9497 4.36399 15.3135 4.813 15.3135H23.187C23.636 15.3135 24 14.9497 24 14.501C24 14.0522 23.636 13.6885 23.187 13.6885Z" fill="#222222"/>
<path d="M23.187 7H4.813C4.36399 7 4 7.36377 4 7.8125C4 8.26123 4.36399 8.625 4.813 8.625H23.187C23.636 8.625 24 8.26123 24 7.8125C24 7.36377 23.636 7 23.187 7Z" fill="#222222"/>
<path d="M23.187 20.375H4.813C4.36399 20.375 4 20.7388 4 21.1875C4 21.6362 4.36399 22 4.813 22H23.187C23.636 22 24 21.6362 24 21.1875C24 20.7388 23.636 20.375 23.187 20.375Z" fill="#222222"/>
</svg>
