<svg width="25" height="24" viewBox="0 0 25 24" fill="none" xmlns="http://www.w3.org/2000/svg">
<path d="M9.17187 11.6998C9.94364 13.2935 11.2324 14.579 12.8281 15.3467C12.9458 15.4024 13.076 15.4265 13.2059 15.4167C13.3358 15.4068 13.4608 15.3633 13.5687 15.2904L15.9125 13.7248C16.016 13.6546 16.1357 13.6117 16.2603 13.6002C16.3849 13.5887 16.5104 13.609 16.625 13.6592L21.0125 15.5435C21.1625 15.6059 21.2877 15.7159 21.369 15.8565C21.4504 15.9971 21.4832 16.1606 21.4625 16.3217C21.3234 17.407 20.7937 18.4046 19.9723 19.1276C19.1509 19.8506 18.0943 20.2495 17 20.2498C13.6185 20.2498 10.3755 18.9065 7.98439 16.5154C5.5933 14.1243 4.25 10.8813 4.25 7.49979C4.25025 6.40553 4.6492 5.34886 5.37221 4.5275C6.09522 3.70613 7.09274 3.17635 8.17812 3.03729C8.33922 3.01659 8.50266 3.04943 8.64326 3.13074C8.78386 3.21206 8.89384 3.33733 8.95625 3.48729L10.8406 7.88416C10.8896 7.99699 10.9101 8.12013 10.9003 8.24275C10.8905 8.36537 10.8507 8.48369 10.7844 8.58729L9.21875 10.9685C9.14905 11.0762 9.10814 11.2 9.09993 11.328C9.09172 11.4561 9.11649 11.5841 9.17187 11.6998V11.6998Z" stroke="#94959B" stroke-width="1.5" stroke-linecap="round" stroke-linejoin="round"/>
</svg>
