<svg width="48" height="48" viewBox="0 0 48 48" fill="none" xmlns="http://www.w3.org/2000/svg">
<rect width="48" height="48" rx="24" fill="#3CA1E4" fill-opacity="0.48"/>
<path d="M33.3844 23.3626L19.8937 15.1127C19.7802 15.0426 19.65 15.0041 19.5166 15.0012C19.3832 14.9982 19.2514 15.0309 19.1349 15.0959C19.0183 15.1608 18.9212 15.2557 18.8535 15.3707C18.7859 15.4857 18.7501 15.6167 18.75 15.7502V32.2501C18.7501 32.3836 18.7859 32.5146 18.8535 32.6296C18.9212 32.7446 19.0183 32.8395 19.1349 32.9044C19.2514 32.9694 19.3832 33.0021 19.5166 32.9991C19.65 32.9962 19.7802 32.9577 19.8937 32.8876L33.3844 24.6377C33.4952 24.5721 33.5869 24.4789 33.6507 24.3671C33.7145 24.2553 33.748 24.1288 33.748 24.0002C33.748 23.8715 33.7145 23.745 33.6507 23.6332C33.5869 23.5214 33.4952 23.4282 33.3844 23.3626Z" fill="white"/>
</svg>
