<svg width="20" height="21" viewBox="0 0 20 21" fill="none" xmlns="http://www.w3.org/2000/svg">
<path d="M10.3439 15.3985L14.2814 17.8985C14.7892 18.2188 15.4142 17.7422 15.2657 17.1563L14.1251 12.6719C14.0943 12.5476 14.0992 12.4171 14.1393 12.2955C14.1793 12.1738 14.253 12.066 14.3517 11.9844L17.8829 9.03908C18.3439 8.65627 18.1095 7.88283 17.5079 7.84377L12.8986 7.54689C12.7728 7.53958 12.6519 7.49578 12.5506 7.42086C12.4493 7.34594 12.372 7.24314 12.3282 7.12502L10.6095 2.79689C10.564 2.67182 10.4811 2.56377 10.3721 2.48742C10.2631 2.41107 10.1332 2.37012 10.0001 2.37012C9.86702 2.37012 9.73715 2.41107 9.62814 2.48742C9.51912 2.56377 9.43624 2.67182 9.39074 2.79689L7.67199 7.12502C7.62819 7.24314 7.55092 7.34594 7.44964 7.42086C7.34836 7.49578 7.22745 7.53958 7.10168 7.54689L2.49231 7.84377C1.89074 7.88283 1.65637 8.65627 2.11731 9.03908L5.64856 11.9844C5.74726 12.066 5.82089 12.1738 5.86097 12.2955C5.90106 12.4171 5.90596 12.5476 5.87512 12.6719L4.82043 16.8281C4.64074 17.5313 5.39074 18.1016 5.99231 17.7188L9.65637 15.3985C9.75912 15.3331 9.87836 15.2984 10.0001 15.2984C10.1219 15.2984 10.2411 15.3331 10.3439 15.3985V15.3985Z" stroke="#FFC042" stroke-width="1.5" stroke-linecap="round" stroke-linejoin="round"/>
</svg>
