<svg width="24" height="24" viewBox="0 0 24 24" fill="none" xmlns="http://www.w3.org/2000/svg">
<path d="M3 6V13.5" stroke="#3889C6" stroke-width="1.5" stroke-linecap="round" stroke-linejoin="round"/>
<path d="M5.0813 20.2504C5.83173 19.0994 6.85746 18.1538 8.06558 17.4993C9.27369 16.8447 10.626 16.502 12 16.502C13.3741 16.502 14.7264 16.8447 15.9345 17.4993C17.1426 18.1538 18.1684 19.0994 18.9188 20.2504" stroke="#3889C6" stroke-width="1.5" stroke-linecap="round" stroke-linejoin="round"/>
<path d="M21 6L12 9L3 6L12 3L21 6Z" stroke="#3889C6" stroke-width="1.5" stroke-linecap="round" stroke-linejoin="round"/>
<path d="M15.8719 7.70605C16.5599 8.45735 17.0144 9.39257 17.1801 10.3977C17.3458 11.4028 17.2155 12.4345 16.805 13.3668C16.3946 14.2992 15.7218 15.092 14.8686 15.6486C14.0154 16.2053 13.0187 16.5016 12 16.5016C10.9813 16.5016 9.9846 16.2053 9.13141 15.6486C8.27822 15.092 7.6054 14.2992 7.19497 13.3668C6.78453 12.4345 6.65422 11.4028 6.81991 10.3977C6.98561 9.39257 7.44015 8.45735 8.12813 7.70605" stroke="#3889C6" stroke-width="1.5" stroke-linecap="round" stroke-linejoin="round"/>
</svg>
