<svg width="48" height="48" viewBox="0 0 48 48" fill="none" xmlns="http://www.w3.org/2000/svg">
<rect width="48" height="48" rx="24" fill="#F6F8FE"/>
<path d="M24 20.2499C24 18.1874 25.7344 16.4717 27.7969 16.4999C28.5192 16.5082 29.2237 16.725 29.8258 17.1241C30.4278 17.5233 30.9018 18.0878 31.1906 18.7499H34.5L31.4719 21.778C31.2765 24.8198 29.93 27.673 27.7061 29.7575C25.4823 31.842 22.5481 33.0014 19.5 32.9999C16.5 32.9999 15.75 31.8749 15.75 31.8749C15.75 31.8749 18.75 30.7499 20.25 28.4999C20.25 28.4999 14.25 25.4999 15.75 17.2499C15.75 17.2499 19.5 20.9999 24 21.7499V20.2499Z" stroke="#222222" stroke-width="1.5" stroke-linecap="round" stroke-linejoin="round"/>
</svg>
