<svg width="33" height="33" viewBox="0 0 33 33" fill="none" xmlns="http://www.w3.org/2000/svg">
<path d="M11.8333 20.165C15.4231 20.165 18.3333 17.2549 18.3333 13.665C18.3333 10.0752 15.4231 7.16504 11.8333 7.16504C8.2434 7.16504 5.33325 10.0752 5.33325 13.665C5.33325 17.2549 8.2434 20.165 11.8333 20.165Z" stroke="#222222" stroke-width="1.5" stroke-linecap="round" stroke-linejoin="round"/>
<path d="M20.2583 7.40254C20.8329 7.2467 21.4254 7.16685 22.0208 7.16504C23.7447 7.16504 25.398 7.84986 26.617 9.06884C27.836 10.2878 28.5208 11.9411 28.5208 13.665C28.5208 15.3889 27.836 17.0422 26.617 18.2612C25.398 19.4802 23.7447 20.165 22.0208 20.165" stroke="#222222" stroke-width="1.5" stroke-linecap="round" stroke-linejoin="round"/>
<path d="M2.83325 24.84C3.84819 23.3957 5.1958 22.2169 6.76226 21.4031C8.32872 20.5894 10.068 20.1646 11.8333 20.1646C13.5985 20.1646 15.3378 20.5894 16.9042 21.4031C18.4707 22.2169 19.8183 23.3957 20.8333 24.84" stroke="#222222" stroke-width="1.5" stroke-linecap="round" stroke-linejoin="round"/>
<path d="M22.0208 20.165C23.7861 20.1639 25.5258 20.5883 27.0924 21.402C28.659 22.2158 30.0065 23.3951 31.0208 24.84" stroke="#222222" stroke-width="1.5" stroke-linecap="round" stroke-linejoin="round"/>
</svg>
