<svg width="25" height="24" viewBox="0 0 25 24" fill="none" xmlns="http://www.w3.org/2000/svg">
<path d="M2.92098 10.191C2.49846 12.4147 2.86412 14.7126 3.94898 16.6915L3.15517 19.4953C3.15481 19.4965 3.15445 19.4977 3.1541 19.499C3.08006 19.7545 3.07577 20.0253 3.14173 20.2831C3.208 20.5422 3.34273 20.7787 3.53182 20.9678C3.72091 21.1569 3.95738 21.2916 4.21645 21.3579C4.47432 21.4238 4.74513 21.4195 5.00075 21.3455C5.00193 21.3451 5.00311 21.3448 5.0043 21.3444L7.80809 20.5506C9.78698 21.6355 12.0849 22.0011 14.3086 21.5786C16.6397 21.1357 18.7289 19.8572 20.1841 17.983C21.6393 16.1089 22.3604 13.7681 22.212 11.3999C22.0635 9.03183 21.0559 6.79932 19.3781 5.12153C17.7003 3.44374 15.4678 2.43605 13.0997 2.28764C10.7315 2.13923 8.39069 2.86031 6.51655 4.3155C4.64242 5.77069 3.36388 7.85992 2.92098 10.191Z" stroke="white" stroke-width="1.5" stroke-linecap="round" stroke-linejoin="round"/>
<path d="M14.7594 17.25C13.7726 17.2525 12.795 17.0599 11.8828 16.6834C10.9706 16.3069 10.1418 15.7539 9.44395 15.0561C8.74615 14.3583 8.19311 13.5295 7.8166 12.6173C7.4401 11.7051 7.24755 10.7275 7.25002 9.74065C7.2525 9.04608 7.53016 8.3808 8.02217 7.89055C8.51419 7.40029 9.18045 7.12502 9.87502 7.12502V7.12502C9.98962 7.12411 10.1023 7.1541 10.2013 7.21184C10.3003 7.26958 10.3819 7.35294 10.4375 7.45315L11.5344 9.36565C11.5996 9.48191 11.6331 9.61329 11.6315 9.74659C11.6298 9.87989 11.5931 10.0104 11.525 10.125L10.6438 11.5969C11.0952 12.601 11.899 13.4049 12.9031 13.8563L14.375 12.975C14.4896 12.9069 14.6202 12.8702 14.7535 12.8686C14.8868 12.8669 15.0181 12.9004 15.1344 12.9656L17.0469 14.0625C17.1471 14.1181 17.2305 14.1997 17.2882 14.2987C17.3459 14.3977 17.3759 14.5104 17.375 14.625C17.3726 15.3188 17.0965 15.9837 16.6068 16.4752C16.1171 16.9666 15.4532 17.2451 14.7594 17.25V17.25Z" stroke="white" stroke-width="1.5" stroke-linecap="round" stroke-linejoin="round"/>
</svg>
