<svg width="164" height="154" viewBox="0 0 164 154" fill="none" xmlns="http://www.w3.org/2000/svg">
<rect y="63.0498" width="7.45455" height="6.97002" rx="3.48501" fill="#3CA1E4" fill-opacity="0.15"/>
<rect y="0.319336" width="7.45455" height="6.97002" rx="3.48501" fill="#3CA1E4" fill-opacity="0.15"/>
<rect x="22.3638" y="63.0498" width="7.45455" height="6.97002" rx="3.48501" fill="#3CA1E4" fill-opacity="0.15"/>
<rect x="22.3638" y="0.319336" width="7.45455" height="6.97002" rx="3.48501" fill="#3CA1E4" fill-opacity="0.15"/>
<rect x="44.7271" y="63.0498" width="7.45455" height="6.97002" rx="3.48501" fill="#3CA1E4" fill-opacity="0.15"/>
<rect x="44.7271" y="0.319336" width="7.45455" height="6.97002" rx="3.48501" fill="#3CA1E4" fill-opacity="0.15"/>
<rect x="67.0908" y="63.0498" width="7.45455" height="6.97002" rx="3.48501" fill="#3CA1E4" fill-opacity="0.15"/>
<rect x="67.0908" y="0.319336" width="7.45455" height="6.97002" rx="3.48501" fill="#3CA1E4" fill-opacity="0.15"/>
<rect x="89.4546" y="63.0498" width="7.45455" height="6.97002" rx="3.48501" fill="#3CA1E4" fill-opacity="0.15"/>
<rect x="89.4546" y="0.319336" width="7.45455" height="6.97002" rx="3.48501" fill="#3CA1E4" fill-opacity="0.15"/>
<rect x="111.818" y="63.0498" width="7.45455" height="6.97002" rx="3.48501" fill="#3CA1E4" fill-opacity="0.15"/>
<rect x="111.818" y="0.319336" width="7.45455" height="6.97002" rx="3.48501" fill="#3CA1E4" fill-opacity="0.15"/>
<rect x="134.182" y="63.0498" width="7.45455" height="6.97002" rx="3.48501" fill="#3CA1E4" fill-opacity="0.15"/>
<rect x="134.182" y="0.319336" width="7.45455" height="6.97002" rx="3.48501" fill="#3CA1E4" fill-opacity="0.15"/>
<rect x="156.545" y="63.0498" width="7.45455" height="6.97002" rx="3.48501" fill="#3CA1E4" fill-opacity="0.15"/>
<rect x="156.545" y="0.319336" width="7.45455" height="6.97002" rx="3.48501" fill="#3CA1E4" fill-opacity="0.15"/>
<rect y="83.96" width="7.45455" height="6.97002" rx="3.48501" fill="#3CA1E4" fill-opacity="0.15"/>
<rect y="21.2295" width="7.45455" height="6.97002" rx="3.48501" fill="#3CA1E4" fill-opacity="0.15"/>
<rect x="22.3638" y="83.96" width="7.45455" height="6.97002" rx="3.48501" fill="#3CA1E4" fill-opacity="0.15"/>
<rect x="22.3633" y="21.2295" width="7.45455" height="6.97002" rx="3.48501" fill="#3CA1E4" fill-opacity="0.15"/>
<rect x="44.7271" y="83.96" width="7.45455" height="6.97002" rx="3.48501" fill="#3CA1E4" fill-opacity="0.15"/>
<rect x="44.7275" y="21.2295" width="7.45455" height="6.97002" rx="3.48501" fill="#3CA1E4" fill-opacity="0.15"/>
<rect x="67.0908" y="83.96" width="7.45455" height="6.97002" rx="3.48501" fill="#3CA1E4" fill-opacity="0.15"/>
<rect x="67.0908" y="21.2295" width="7.45455" height="6.97002" rx="3.48501" fill="#3CA1E4" fill-opacity="0.15"/>
<rect x="89.4546" y="83.96" width="7.45455" height="6.97002" rx="3.48501" fill="#3CA1E4" fill-opacity="0.15"/>
<rect x="89.4546" y="21.2295" width="7.45455" height="6.97002" rx="3.48501" fill="#3CA1E4" fill-opacity="0.15"/>
<rect x="111.818" y="83.96" width="7.45455" height="6.97002" rx="3.48501" fill="#3CA1E4" fill-opacity="0.15"/>
<rect x="111.818" y="21.2295" width="7.45455" height="6.97002" rx="3.48501" fill="#3CA1E4" fill-opacity="0.15"/>
<rect x="134.182" y="83.96" width="7.45455" height="6.97002" rx="3.48501" fill="#3CA1E4" fill-opacity="0.15"/>
<rect x="134.182" y="21.2295" width="7.45455" height="6.97002" rx="3.48501" fill="#3CA1E4" fill-opacity="0.15"/>
<rect x="156.545" y="83.96" width="7.45455" height="6.97002" rx="3.48501" fill="#3CA1E4" fill-opacity="0.15"/>
<rect x="156.545" y="21.2295" width="7.45455" height="6.97002" rx="3.48501" fill="#3CA1E4" fill-opacity="0.15"/>
<rect y="104.87" width="7.45455" height="6.97002" rx="3.48501" fill="#3CA1E4" fill-opacity="0.15"/>
<rect y="42.1387" width="7.45455" height="6.97002" rx="3.48501" fill="#3CA1E4" fill-opacity="0.15"/>
<rect x="22.3633" y="104.87" width="7.45455" height="6.97002" rx="3.48501" fill="#3CA1E4" fill-opacity="0.15"/>
<rect x="22.3633" y="42.1387" width="7.45455" height="6.97002" rx="3.48501" fill="#3CA1E4" fill-opacity="0.15"/>
<rect x="44.7275" y="104.87" width="7.45455" height="6.97002" rx="3.48501" fill="#3CA1E4" fill-opacity="0.15"/>
<rect x="44.7275" y="42.1387" width="7.45455" height="6.97002" rx="3.48501" fill="#3CA1E4" fill-opacity="0.15"/>
<rect x="67.0908" y="104.87" width="7.45455" height="6.97002" rx="3.48501" fill="#3CA1E4" fill-opacity="0.15"/>
<rect x="67.0908" y="42.1387" width="7.45455" height="6.97002" rx="3.48501" fill="#3CA1E4" fill-opacity="0.15"/>
<rect x="89.4546" y="104.87" width="7.45455" height="6.97002" rx="3.48501" fill="#3CA1E4" fill-opacity="0.15"/>
<rect x="89.4546" y="42.1387" width="7.45455" height="6.97002" rx="3.48501" fill="#3CA1E4" fill-opacity="0.15"/>
<rect x="111.818" y="104.87" width="7.45455" height="6.97002" rx="3.48501" fill="#3CA1E4" fill-opacity="0.15"/>
<rect x="111.818" y="42.1387" width="7.45455" height="6.97002" rx="3.48501" fill="#3CA1E4" fill-opacity="0.15"/>
<rect x="134.182" y="104.87" width="7.45455" height="6.97002" rx="3.48501" fill="#3CA1E4" fill-opacity="0.15"/>
<rect x="134.182" y="42.1387" width="7.45455" height="6.97002" rx="3.48501" fill="#3CA1E4" fill-opacity="0.15"/>
<rect x="156.545" y="104.87" width="7.45455" height="6.97002" rx="3.48501" fill="#3CA1E4" fill-opacity="0.15"/>
<rect x="156.545" y="42.1387" width="7.45455" height="6.97002" rx="3.48501" fill="#3CA1E4" fill-opacity="0.15"/>
<rect y="125.779" width="7.45455" height="6.97002" rx="3.48501" fill="#3CA1E4" fill-opacity="0.15"/>
<rect x="22.3633" y="125.779" width="7.45455" height="6.97002" rx="3.48501" fill="#3CA1E4" fill-opacity="0.15"/>
<rect x="44.7275" y="125.779" width="7.45455" height="6.97002" rx="3.48501" fill="#3CA1E4" fill-opacity="0.15"/>
<rect x="67.0908" y="125.779" width="7.45455" height="6.97002" rx="3.48501" fill="#3CA1E4" fill-opacity="0.15"/>
<rect x="89.4546" y="125.779" width="7.45455" height="6.97002" rx="3.48501" fill="#3CA1E4" fill-opacity="0.15"/>
<rect x="111.818" y="125.779" width="7.45455" height="6.97002" rx="3.48501" fill="#3CA1E4" fill-opacity="0.15"/>
<rect x="134.182" y="125.779" width="7.45455" height="6.97002" rx="3.48501" fill="#3CA1E4" fill-opacity="0.15"/>
<rect x="156.545" y="125.779" width="7.45455" height="6.97002" rx="3.48501" fill="#3CA1E4" fill-opacity="0.15"/>
<rect y="146.689" width="7.45455" height="6.97002" rx="3.48501" fill="#3CA1E4" fill-opacity="0.15"/>
<rect x="22.3638" y="146.689" width="7.45455" height="6.97002" rx="3.48501" fill="#3CA1E4" fill-opacity="0.15"/>
<rect x="44.7271" y="146.689" width="7.45455" height="6.97002" rx="3.48501" fill="#3CA1E4" fill-opacity="0.15"/>
<rect x="67.0908" y="146.689" width="7.45455" height="6.97002" rx="3.48501" fill="#3CA1E4" fill-opacity="0.15"/>
<rect x="89.4546" y="146.689" width="7.45455" height="6.97002" rx="3.48501" fill="#3CA1E4" fill-opacity="0.15"/>
<rect x="111.818" y="146.689" width="7.45455" height="6.97002" rx="3.48501" fill="#3CA1E4" fill-opacity="0.15"/>
<rect x="134.182" y="146.689" width="7.45455" height="6.97002" rx="3.48501" fill="#3CA1E4" fill-opacity="0.15"/>
<rect x="156.545" y="146.689" width="7.45455" height="6.97002" rx="3.48501" fill="#3CA1E4" fill-opacity="0.15"/>
</svg>
