<svg width="187" height="40" viewBox="0 0 187 40" fill="none" xmlns="http://www.w3.org/2000/svg">
<g clip-path="url(#clip0_452_11345)">
<path d="M61.1193 22.7763H44.6246C45.2327 25.4919 47.5437 27.1537 50.8649 27.1537C53.176 27.1537 54.8378 26.4657 56.3373 25.0462L59.7021 28.6944C57.6745 31.0055 54.6367 32.2191 50.705 32.2191C43.1663 32.2191 38.2632 27.4783 38.2632 20.9934C38.2632 14.5084 43.2487 9.76758 49.8935 9.76758C56.5384 9.76758 61.2404 14.0626 61.2404 21.0757C61.2404 21.5626 61.1605 22.2506 61.1193 22.7787V22.7763ZM44.5447 19.0893H55.2835C54.8378 16.3325 52.7714 14.5496 49.9347 14.5496C47.098 14.5496 44.9904 16.2913 44.5447 19.0893Z" fill="#3889C6"/>
<path d="M86.8535 1.82422V31.8945H80.8143V29.3824C79.2348 31.2864 76.9238 32.2191 74.0047 32.2191C67.8443 32.2191 63.1035 27.8417 63.1035 20.9933C63.1035 14.145 67.8443 9.76753 74.0047 9.76753C76.6791 9.76753 78.949 10.6178 80.5308 12.4008V1.82422H86.8535ZM80.652 20.9933C80.652 17.2239 78.2198 14.9541 75.0996 14.9541C71.9795 14.9541 69.5061 17.2239 69.5061 20.9933C69.5061 24.7627 71.9383 27.0326 75.0996 27.0326C78.261 27.0326 80.652 24.7627 80.652 20.9933Z" fill="#3889C6"/>
<path d="M91.1094 3.52471C91.1094 1.53828 92.6888 0 95.0411 0C97.3933 0 98.9727 1.45833 98.9727 3.40359C98.9727 5.51114 97.3909 7.05184 95.0411 7.05184C92.6912 7.05184 91.1094 5.51114 91.1094 3.52713V3.52471ZM91.8797 10.0896H98.2024V31.8944H91.8797V10.0921V10.0896Z" fill="#3889C6"/>
<path d="M124.583 10.4168V28.9779C124.583 36.5578 120.734 40.0026 113.437 40.0026C109.506 40.0026 105.535 38.9076 103.183 36.8001L105.048 33.8011C107.035 35.5041 110.155 36.5966 113.316 36.5966C118.382 36.5966 120.693 34.2468 120.693 29.3825V27.6794C118.827 29.9081 116.032 31.0031 112.953 31.0031C106.751 31.0031 102.052 26.788 102.052 20.5864C102.052 14.3849 106.754 10.2109 112.953 10.2109C116.155 10.2109 119.072 11.3858 120.896 13.7356V10.412H124.583V10.4168ZM120.773 20.5888C120.773 16.4149 117.694 13.6169 113.396 13.6169C109.099 13.6169 105.979 16.4125 105.979 20.5888C105.979 24.7652 109.058 27.5995 113.396 27.5995C117.735 27.5995 120.773 24.7216 120.773 20.5888Z" fill="#E25A9F"/>
<path d="M147.968 10.417V31.8971H144.28V28.6558C142.701 30.8845 140.024 32.1418 136.986 32.1418C131.434 32.1418 127.747 29.1016 127.747 22.7789V10.417H131.638V22.3332C131.638 26.5483 133.745 28.6558 137.432 28.6558C141.485 28.6558 144.079 26.1437 144.079 21.5241V10.417H147.97H147.968Z" fill="#E25A9F"/>
<path d="M162.88 10.2129V13.9823C162.556 13.9411 162.272 13.9411 161.989 13.9411C157.815 13.9411 155.221 16.4944 155.221 21.1964V31.8965H151.33V10.4164H155.058V14.0235C156.437 11.5113 159.111 10.2129 162.88 10.2129Z" fill="#E25A9F"/>
<path d="M186.347 10.417V31.8971H182.66V28.6558C181.08 30.8845 178.404 32.1418 175.366 32.1418C169.813 32.1418 166.126 29.1016 166.126 22.7789V10.417H170.017V22.3332C170.017 26.5483 172.125 28.6558 175.812 28.6558C179.864 28.6558 182.459 26.1437 182.459 21.5241V10.417H186.349H186.347Z" fill="#E25A9F"/>
<path d="M35.7631 3.5293H30.3779L19.92 21.1577L9.30714 3.5293H3.87109V17.444H10.0315V15.242L18.3406 28.8975H21.3057L29.6536 14.881L29.6923 31.9014H35.8527L35.7631 3.5293Z" fill="#3889C6"/>
<path fill-rule="evenodd" clip-rule="evenodd" d="M3.87112 18.583H10.0315V22.4323H13.8469V27.4202H10.0315V31.9018H3.87112V27.4202H0V22.4323H3.87112V18.583ZM3.99473 24.4188C4.04802 22.7957 5.60325 22.2288 6.84356 23.3577C8.08387 22.2288 9.63911 22.7957 9.6924 24.4188C9.68029 26.1726 8.1517 27.2361 6.84356 28.113C5.53542 27.2337 4.00684 26.1726 3.99473 24.4188Z" fill="#E25A9F"/>
</g>
<defs>
<clipPath id="clip0_452_11345">
<rect width="186.347" height="40" fill="white"/>
</clipPath>
</defs>
</svg>
