<svg width="30" height="31" viewBox="0 0 30 31" fill="none" xmlns="http://www.w3.org/2000/svg">
<rect y="0.386719" width="30" height="30" rx="8" fill="#3CA1E4" fill-opacity="0.15"/>
<path d="M12.2266 15.1369C12.8697 16.465 13.9437 17.5362 15.2734 18.1759C15.3715 18.2224 15.48 18.2425 15.5882 18.2343C15.6965 18.226 15.8007 18.1898 15.8906 18.1291L17.8437 16.8244C17.93 16.7658 18.0298 16.7301 18.1336 16.7206C18.2374 16.711 18.342 16.7279 18.4375 16.7697L22.0938 18.34C22.2187 18.392 22.3231 18.4836 22.3909 18.6008C22.4586 18.718 22.486 18.8542 22.4688 18.9884C22.3529 19.8929 21.9114 20.7242 21.2269 21.3267C20.5424 21.9292 19.6619 22.2617 18.75 22.2619C15.9321 22.2619 13.2296 21.1425 11.237 19.1499C9.24442 17.1573 8.125 14.4548 8.125 11.6369C8.12521 10.725 8.45767 9.84443 9.06018 9.15996C9.66269 8.47548 10.494 8.034 11.3984 7.91812C11.5327 7.90087 11.6689 7.92824 11.7861 7.996C11.9032 8.06376 11.9949 8.16816 12.0469 8.29312L13.6172 11.9572C13.658 12.0512 13.6751 12.1538 13.6669 12.256C13.6588 12.3582 13.6256 12.4568 13.5703 12.5431L12.2656 14.5275C12.2075 14.6172 12.1734 14.7204 12.1666 14.8271C12.1598 14.9338 12.1804 15.0404 12.2266 15.1369V15.1369Z" stroke="#3889C6" stroke-width="1.5" stroke-linecap="round" stroke-linejoin="round"/>
</svg>
