<svg width="16" height="17" viewBox="0 0 16 17" fill="none" xmlns="http://www.w3.org/2000/svg">
<path d="M8.275 12.3055L11.425 14.3055C11.8312 14.5617 12.3312 14.1805 12.2125 13.7117L11.3 10.1242C11.2753 10.0248 11.2792 9.92041 11.3113 9.8231C11.3434 9.72579 11.4023 9.63952 11.4812 9.57423L14.3062 7.21798C14.675 6.91173 14.4875 6.29298 14.0062 6.26173L10.3187 6.02423C10.2181 6.01838 10.1214 5.98334 10.0404 5.92341C9.95935 5.86347 9.89754 5.78123 9.8625 5.68673L8.4875 2.22423C8.4511 2.12417 8.38479 2.03774 8.29758 1.97666C8.21037 1.91558 8.10647 1.88281 8 1.88281C7.89352 1.88281 7.78963 1.91558 7.70241 1.97666C7.6152 2.03774 7.54889 2.12417 7.5125 2.22423L6.1375 5.68673C6.10245 5.78123 6.04064 5.86347 5.95962 5.92341C5.87859 5.98334 5.78186 6.01838 5.68125 6.02423L1.99375 6.26173C1.5125 6.29298 1.325 6.91173 1.69375 7.21798L4.51875 9.57423C4.59771 9.63952 4.65661 9.72579 4.68868 9.8231C4.72075 9.92041 4.72467 10.0248 4.7 10.1242L3.85625 13.4492C3.7125 14.0117 4.3125 14.468 4.79375 14.1617L7.725 12.3055C7.8072 12.2532 7.90259 12.2255 8 12.2255C8.09741 12.2255 8.1928 12.2532 8.275 12.3055V12.3055Z" stroke="#FFC042" stroke-width="1.5" stroke-linecap="round" stroke-linejoin="round"/>
</svg>
