<svg width="67" height="21" viewBox="0 0 67 21" fill="none" xmlns="http://www.w3.org/2000/svg">
<rect y="0.386719" width="67" height="20" rx="10" fill="#33C390" fill-opacity="0.15"/>
<path d="M12.75 8.88672L9.08125 12.3867L7.25 10.6367" stroke="#33C390" stroke-width="1.5" stroke-linecap="round" stroke-linejoin="round"/>
<path d="M10 16.3867C13.3137 16.3867 16 13.7004 16 10.3867C16 7.07301 13.3137 4.38672 10 4.38672C6.68629 4.38672 4 7.07301 4 10.3867C4 13.7004 6.68629 16.3867 10 16.3867Z" stroke="#33C390" stroke-width="1.5" stroke-linecap="round" stroke-linejoin="round"/>
<path d="M24.56 12.4567L22.64 6.90672H21.14L23.7 13.8867H25.4L27.96 6.90672H26.47L24.56 12.4567ZM31.3794 9.40672C32.0994 9.40672 32.6794 9.86672 32.6994 10.5967H30.0694C30.1794 9.83672 30.7094 9.40672 31.3794 9.40672ZM34.0094 12.1467H32.4994C32.3194 12.5167 31.9894 12.8167 31.3894 12.8167C30.6894 12.8167 30.1294 12.3567 30.0594 11.5367H34.1094C34.1394 11.3567 34.1494 11.1767 34.1494 10.9967C34.1494 9.34672 33.0194 8.25672 31.4194 8.25672C29.7794 8.25672 28.6394 9.36672 28.6394 11.1167C28.6394 12.8567 29.8094 13.9767 31.4194 13.9767C32.7894 13.9767 33.7094 13.1667 34.0094 12.1467ZM36.7712 11.1267C36.7712 10.0567 37.2712 9.73672 38.1012 9.73672H38.4712V8.26672C37.7012 8.26672 37.1212 8.63672 36.7712 9.20672V8.34672H35.3712V13.8867H36.7712V11.1267ZM39.6142 13.8867H41.0142V8.34672H39.6142V13.8867ZM40.3242 7.68672C40.8142 7.68672 41.1842 7.32672 41.1842 6.86672C41.1842 6.40672 40.8142 6.04672 40.3242 6.04672C39.8242 6.04672 39.4642 6.40672 39.4642 6.86672C39.4642 7.32672 39.8242 7.68672 40.3242 7.68672ZM42.7474 13.8867H44.1674V9.49672H45.1374V8.34672H44.1674V8.11672C44.1674 7.49672 44.3974 7.27672 45.0774 7.29672V6.11672C43.5174 6.07672 42.7474 6.70672 42.7474 8.06672V8.34672H42.1174V9.49672H42.7474V13.8867ZM46.2447 13.8867H47.6447V8.34672H46.2447V13.8867ZM46.9547 7.68672C47.4447 7.68672 47.8147 7.32672 47.8147 6.86672C47.8147 6.40672 47.4447 6.04672 46.9547 6.04672C46.4547 6.04672 46.0947 6.40672 46.0947 6.86672C46.0947 7.32672 46.4547 7.68672 46.9547 7.68672ZM51.6079 9.40672C52.3279 9.40672 52.9079 9.86672 52.9279 10.5967H50.2979C50.4079 9.83672 50.9379 9.40672 51.6079 9.40672ZM54.2379 12.1467H52.7279C52.5479 12.5167 52.2179 12.8167 51.6179 12.8167C50.9179 12.8167 50.3579 12.3567 50.2879 11.5367H54.3379C54.3679 11.3567 54.3779 11.1767 54.3779 10.9967C54.3779 9.34672 53.2479 8.25672 51.6479 8.25672C50.0079 8.25672 48.8679 9.36672 48.8679 11.1167C48.8679 12.8567 50.0379 13.9767 51.6479 13.9767C53.0179 13.9767 53.9379 13.1667 54.2379 12.1467ZM55.2398 11.0967C55.2398 12.8267 56.3598 13.9767 57.7698 13.9767C58.6398 13.9767 59.2598 13.5767 59.5898 13.0667V13.8867H61.0098V6.48672H59.5898V9.11672C59.2098 8.59672 58.5098 8.25672 57.7798 8.25672C56.3598 8.25672 55.2398 9.36672 55.2398 11.0967ZM59.5998 11.1167C59.5998 12.1667 58.8998 12.7467 58.1298 12.7467C57.3798 12.7467 56.6698 12.1467 56.6698 11.0967C56.6698 10.0467 57.3798 9.48672 58.1298 9.48672C58.8998 9.48672 59.5998 10.0667 59.5998 11.1167Z" fill="#33C390"/>
</svg>
